<svg width="14" height="18" viewBox="0 0 14 18" fill="none" xmlns="http://www.w3.org/2000/svg">
<path fill-rule="evenodd" clip-rule="evenodd" d="M7.641 3.539C8.052 2.978 8.86 2.536 9.922 2.268C10.2387 2.18915 10.5595 2.12805 10.883 2.085L11.21 2.045L11.206 2.298C11.1898 2.86455 11.1168 3.42805 10.988 3.98C10.825 4.649 10.578 5.202 10.246 5.604C9.696 6.205 8.718 6.291 8.031 5.764C7.69915 5.50936 7.47495 5.13945 7.40273 4.72744C7.33052 4.31544 7.41554 3.89133 7.641 3.539ZM5.295 8.034C5.06962 8.27692 4.75883 8.42297 4.42797 8.44143C4.09712 8.4599 3.772 8.34934 3.521 8.133C3.148 7.81 2.831 7.319 2.581 6.7L2.471 6.405C2.40078 6.20368 2.33906 5.9995 2.286 5.793L2.204 5.443L2.521 5.438C2.95 5.441 3.379 5.48 3.785 5.565C4.418 5.697 4.924 5.933 5.274 6.27C5.749 6.744 5.764 7.529 5.295 8.034ZM11.756 6.915C12.335 6.214 12.703 5.393 12.931 4.452C13.165 3.487 13.236 2.494 13.206 1.58L13.181 1.096L13.162 0.889L13.063 0.00400162L12.046 0C11.1654 0.00669427 10.2887 0.117123 9.434 0.329C7.96 0.7 6.758 1.357 5.99 2.411C5.67 2.911 5.48 3.453 5.416 3.998C5.02415 3.82348 4.61437 3.69237 4.194 3.607C3.247 3.409 2.266 3.4 1.349 3.501L1.119 3.529L0.876999 3.566L0 3.728L0.0689983 4.724L0.098999 4.991L0.147999 5.326L0.181 5.516C0.298 6.171 0.475 6.827 0.726 7.449C1.087 8.341 1.571 9.092 2.215 9.647C2.70147 10.0666 3.3004 10.3341 3.93751 10.4164C4.57462 10.4987 5.22188 10.3922 5.799 10.11L5.798 13.776C4.09726 13.9983 2.51839 14.7787 1.309 15.995L2.727 17.405L2.922 17.219C4.01438 16.218 5.45165 15.6783 6.93292 15.713C8.4142 15.7476 9.82465 16.3539 10.869 17.405L12.287 15.995L12.066 15.78C10.886 14.6849 9.39427 13.9845 7.798 13.776V7.89C8.48023 8.13692 9.22034 8.17608 9.92481 8.00255C10.6293 7.82901 11.2665 7.45055 11.756 6.915Z" fill="#0E0E0F"/>
</svg>
